<svg xmlns="http://www.w3.org/2000/svg" width="928" height="206" viewBox="-30 -173 928 206"><defs><linearGradient id="gd" x1="0" y1="1" x2="1" y2="0"><stop offset="0" stop-color="#3D7BFF"></stop><stop offset="1" stop-color="#8FB5FF"></stop></linearGradient></defs><g><path d="M 119.73 -30.79 A 61 61 0 0 1 31.14 -25.63 A 61 61 0 0 1 31.14 -114.37 A 61 61 0 0 1 119.73 -109.21" fill="none" stroke="url(#gd)" stroke-width="24" stroke-linecap="round"></path><circle cx="73" cy="-70" r="16.5" fill="#FFFFFF"></circle><circle cx="134" cy="-70" r="12" fill="#6FA3FF"></circle></g><g transform="translate(172 0)"><g fill="none" stroke="#F5F8FD" stroke-width="22" stroke-linecap="round" stroke-linejoin="round"><g transform="translate(0 0)"><path d="M 53 -92 A 42 42 0 0 1 89.37 -29 A 42 42 0 0 1 16.63 -29 A 42 42 0 0 1 53 -92 Z"></path></g><g transform="translate(128 0)"><path d="M 11 -11 L 11 -89"></path><path d="M 11 -47 A 42 42 0 0 1 53 -89 A 42 42 0 0 1 95 -47 L 95 -11"></path></g><g transform="translate(258 0)"><path d="M 11 -11 L 11 -89"></path><path d="M 11 -47 A 42 42 0 0 1 53 -89 A 42 42 0 0 1 95 -47 L 95 -11"></path></g><g transform="translate(386 0)"><path d="M 11 -50 L 95 -50 A 42 42 0 0 0 42.13 -90.57 A 42 42 0 0 0 16.63 -29 A 42 42 0 0 0 82.7 -20.3"></path></g><g transform="translate(510 0)"><path d="M 84.21 -78.1 A 42 42 0 0 0 23.82 -80.21 A 42 42 0 0 0 23.82 -19.79 A 42 42 0 0 0 84.21 -21.9"></path></g><g transform="translate(622 0)"><path d="M 33 -124 L 33 -11"></path><path d="M 11 -89 L 63 -89"></path></g></g></g></svg>